<svg width="928" height="220" viewBox="0 0 928 220" fill="none" xmlns="http://www.w3.org/2000/svg">
<path d="M33 37V31.5C33 29.8431 34.3431 28.5 36 28.5H80C81.6569 28.5 83 29.8431 83 31.5V40M69 69H80C81.6569 69 83 67.6569 83 66V44M19 48V40C19 38.3431 20.3431 37 22 37H66C67.6569 37 69 38.3431 69 40V40M19 48H69M19 48V52M69 48V52M69 48V44M69 52V74C69 75.6569 67.6569 77 66 77H22C20.3431 77 19 75.6569 19 74V52M69 52H19M83 40H69M83 40V44M69 40V44M83 44H69M26 63H37M26 68.5H48" stroke="black" stroke-width="2"/>
<path d="M33 154V148.5C33 146.843 34.3431 145.5 36 145.5H80C81.6569 145.5 83 146.843 83 148.5V157M69 186H80C81.6569 186 83 184.657 83 183V161M19 165V157C19 155.343 20.3431 154 22 154H66C67.6569 154 69 155.343 69 157V157M19 165H69M19 165V169M69 165V169M69 165V161M69 169V191C69 192.657 67.6569 194 66 194H22C20.3431 194 19 192.657 19 191V169M69 169H19M83 157H69M83 157V161M69 157V161M83 161H69M26 180H37M26 185.5H48" stroke="#51B25D" stroke-width="2"/>
<path d="M266.5 33.6818L257 28.5L229 43.5V72L257 87.5L284.5 72V43.5L272 36.6818M266.5 33.6818L239.5 48L239 59L244.5 61L245 51L272 36.6818M266.5 33.6818L272 36.6818" stroke="black" stroke-width="2"/>
<path d="M266.5 150.682L257 145.5L229 160.5V189L257 204.5L284.5 189V160.5L272 153.682M266.5 150.682L239.5 165L239 176L244.5 178L245 168L272 153.682M266.5 150.682L272 153.682" stroke="#51B25D" stroke-width="2"/>
<rect x="431" y="29.5" width="36" height="53" rx="2" stroke="black" stroke-width="2"/>
<rect x="444.5" y="32" width="9" height="1" stroke="black"/>
<rect x="436" y="37.5" width="26" height="34" rx="1" stroke="black" stroke-width="2"/>
<circle cx="448.5" cy="77" r="2" stroke="black"/>
<rect x="431" y="146.5" width="36" height="53" rx="2" stroke="#51B25D" stroke-width="2"/>
<rect x="444.5" y="149" width="9" height="1" stroke="#51B25D"/>
<rect x="436" y="154.5" width="26" height="34" rx="1" stroke="#51B25D" stroke-width="2"/>
<circle cx="448.5" cy="194" r="2" stroke="#51B25D"/>
<path d="M618.5 53.5L614 57.5M614 57.5V81H663.5V57.5M614 57.5H618.5M663.5 57.5L657.5 53.5M663.5 57.5H658.5M618.5 57.5H629.5V67H647.5V57.5H658.5M618.5 57.5V28.5H658.5V57.5" stroke="black" stroke-width="2"/>
<path d="M618.5 170.5L614 174.5M614 174.5V198H663.5V174.5M614 174.5H618.5M663.5 174.5L657.5 170.5M663.5 174.5H658.5M618.5 174.5H629.5V184H647.5V174.5H658.5M618.5 174.5V145.5H658.5V174.5" stroke="#51B25D" stroke-width="2"/>
<path d="M810.5 31.5C810.5 30.3954 811.395 29.5 812.5 29.5H821.5H830H856.5C857.605 29.5 858.5 30.3954 858.5 31.5V42V59V65.5C858.5 66.6046 857.605 67.5 856.5 67.5H812.5C811.395 67.5 810.5 66.6046 810.5 65.5V41V31.5Z" stroke="black" stroke-width="2"/>
<path d="M827.633 48.7461C827.393 47.9492 826.754 47.4629 825.828 47.457C824.516 47.4629 823.625 48.4648 823.625 50.2461C823.625 52.0391 824.486 53.0527 825.84 53.0586C827.053 53.0527 827.773 52.3672 827.797 51.3008H825.957V49.9766H829.496V51.0312C829.496 53.2578 827.967 54.6172 825.828 54.6172C823.449 54.6172 821.832 52.9531 821.832 50.2695C821.832 47.5156 823.555 45.8984 825.793 45.8984C827.709 45.8984 829.18 47.0762 829.414 48.7461H827.633ZM832.543 46.0156V54.5H830.785V46.0156H832.543ZM833.973 54.5V46.0156H839.562V47.4688H835.73V49.5312H839.199V50.9844H835.73V54.5H833.973ZM840.395 47.4688V46.0156H847.344V47.4688H844.742V54.5H842.996V47.4688H840.395Z" fill="black"/>
<path d="M812.5 146.5H819.154L810.5 155.514V148.5C810.5 147.395 811.395 146.5 812.5 146.5ZM810.5 158.402L821.926 146.5H827.699L816.669 158.318L810.5 164.927V158.402ZM810.5 175.485V167.858L817.835 160H858.5V175.01L810.5 175.485ZM858.5 158H819.701L830.435 146.5H856.5C857.605 146.5 858.5 147.395 858.5 148.5V158ZM810.5 177.485L858.5 177.01V182.5C858.5 183.605 857.605 184.5 856.5 184.5H812.5C811.395 184.5 810.5 183.605 810.5 182.5V177.485Z" stroke="#51B25D" stroke-width="2"/>
<path d="M827.633 165.746C827.393 164.949 826.754 164.463 825.828 164.457C824.516 164.463 823.625 165.465 823.625 167.246C823.625 169.039 824.486 170.053 825.84 170.059C827.053 170.053 827.773 169.367 827.797 168.301H825.957V166.977H829.496V168.031C829.496 170.258 827.967 171.617 825.828 171.617C823.449 171.617 821.832 169.953 821.832 167.27C821.832 164.516 823.555 162.898 825.793 162.898C827.709 162.898 829.18 164.076 829.414 165.746H827.633ZM832.543 163.016V171.5H830.785V163.016H832.543ZM833.973 171.5V163.016H839.562V164.469H835.73V166.531H839.199V167.984H835.73V171.5H833.973ZM840.395 164.469V163.016H847.344V164.469H844.742V171.5H842.996V164.469H840.395Z" fill="#51B25D"/>
</svg>
